<svg version="1.1" id="Layer_1" xmlns="http://www.w3.org/2000/svg" xmlns:xlink="http://www.w3.org/1999/xlink" x="0px" y="0px"
	 width="100%" viewBox="0 0 2500 2500" enable-background="new 0 0 2500 2500" xml:space="preserve">
<path fill="transparent" opacity="1.000000" stroke="none" 
	d="
M1224.000000,2502.000000 
	C816.000000,2502.000000 409.000000,2502.000000 2.000000,2502.000000 
	C2.000000,1668.666626 2.000000,835.333313 2.000000,2.000000 
	C835.333313,2.000000 1668.666626,2.000000 2502.000000,2.000000 
	C2502.000000,835.333313 2502.000000,1668.666626 2502.000000,2502.000000 
	C2076.333252,2502.000000 1650.666626,2502.000000 1224.000000,2502.000000 
M1685.805176,903.380493 
	C1555.488770,837.298035 1425.172241,771.215515 1293.925293,704.661133 
	C1293.595459,708.125305 1293.228882,710.341003 1293.198730,712.561279 
	C1293.013672,726.221558 1292.796875,739.882812 1292.788452,753.543884 
	C1292.747925,818.873779 1292.727905,884.203796 1292.797607,949.533630 
	C1292.817505,968.294312 1295.294800,986.764160 1300.978760,1004.679993 
	C1317.551270,1056.917358 1350.481934,1095.225708 1399.356323,1119.970581 
	C1483.152222,1162.396240 1566.902954,1204.911377 1650.676880,1247.380493 
	C1772.774780,1309.277710 1894.874512,1371.171387 2016.989502,1433.034912 
	C2019.511475,1434.312500 2022.228027,1435.206055 2025.490845,1436.539062 
	C2025.490845,1315.696777 2025.490845,1196.096680 2025.490845,1076.206299 
	C2023.468384,1074.976562 2021.577271,1073.653442 2019.540771,1072.615601 
	C2002.030518,1063.693115 1984.492432,1054.825317 1966.965576,1045.935303 
	C1873.696777,998.626831 1780.428833,951.316711 1685.805176,903.380493 
M1629.507080,1705.328735 
	C1724.555664,1753.536865 1819.604248,1801.745117 1914.653076,1849.952759 
	C1948.214966,1866.974854 1981.756592,1884.037354 2015.377075,1900.942993 
	C2018.380493,1902.453125 2021.302246,1905.492310 2025.222168,1903.617432 
	C2025.222168,1783.798584 2025.222168,1664.252319 2025.222168,1544.548218 
	C1781.501587,1420.956909 1538.140259,1297.547852 1292.767456,1173.118896 
	C1292.767456,1190.645752 1292.767334,1205.905396 1292.767456,1221.165039 
	C1292.768311,1287.492798 1291.673584,1353.843628 1293.062866,1420.142334 
	C1294.605713,1493.770630 1327.910889,1550.399292 1393.107300,1585.030518 
	C1470.739868,1626.267822 1549.778076,1664.858887 1629.507080,1705.328735 
M811.134644,1281.961182 
	C817.954651,1278.466675 824.761292,1274.945923 831.596558,1271.481445 
	C931.444092,1220.873535 1031.489868,1170.651855 1131.078125,1119.538940 
	C1198.590576,1084.888794 1235.052612,1028.562500 1236.830688,952.944092 
	C1238.717773,872.684814 1236.869019,792.337708 1236.611328,712.029053 
	C1236.605347,710.174561 1236.116089,708.321655 1235.717041,705.517151 
	C1232.321655,707.042664 1229.624268,708.120850 1227.046387,709.433777 
	C1203.298950,721.528442 1179.604858,733.728516 1155.833740,745.776306 
	C1023.888245,812.649658 891.923645,879.485535 759.969055,946.341064 
	C677.653320,988.046814 595.369690,1029.816162 512.977173,1071.369751 
	C506.981476,1074.393555 504.061615,1077.614868 504.077911,1084.919067 
	C504.333740,1199.564575 504.253510,1314.210815 504.282593,1428.856812 
	C504.283142,1431.041016 504.672028,1433.225220 505.036224,1437.055542 
	C607.380005,1385.193970 708.589539,1333.907104 811.134644,1281.961182 
M1237.321167,1269.000000 
	C1237.050415,1237.779297 1236.779785,1206.558716 1236.499268,1174.210815 
	C1232.660156,1175.842407 1229.914551,1176.825928 1227.333008,1178.133667 
	C1182.755859,1200.718384 1138.204834,1223.354492 1093.636230,1245.956177 
	C955.463928,1316.026489 817.287476,1386.088867 679.110779,1456.150513 
	C623.844727,1484.172729 568.592957,1512.223022 513.276733,1540.145752 
	C507.585052,1543.018921 504.025330,1545.846313 504.045837,1553.467773 
	C504.353455,1667.781128 504.249603,1782.095459 504.281586,1896.409668 
	C504.282288,1898.895020 504.742432,1901.380249 505.113647,1905.132935 
	C510.015350,1902.814209 513.883118,1901.095947 517.652588,1899.183838 
	C549.145081,1883.208984 580.608521,1867.177124 612.101257,1851.203125 
	C719.935974,1796.506104 827.774719,1741.816895 935.620605,1687.141846 
	C1002.172119,1653.401855 1068.837402,1619.884277 1135.254761,1585.882568 
	C1165.166382,1570.569580 1189.713501,1548.968994 1207.741577,1520.287720 
	C1227.411621,1488.994507 1237.132690,1454.821777 1237.274170,1417.975220 
	C1237.462280,1368.984009 1237.320435,1319.991821 1237.321167,1269.000000 
M1726.264038,852.519104 
	C1734.575928,856.741089 1742.885254,860.967773 1751.200317,865.183594 
	C1759.514404,869.398987 1767.782837,873.709229 1776.166138,877.782837 
	C1784.334717,881.752014 1792.164307,886.558655 1801.215454,889.777283 
	C1803.178223,864.295288 1801.139038,840.116089 1803.542847,815.863525 
	C1806.350708,787.535339 1802.323975,758.814392 1805.959595,730.303223 
	C1807.213135,720.472046 1806.566528,710.323608 1806.036255,700.360168 
	C1805.458008,689.495972 1803.410156,678.804688 1799.035645,668.718567 
	C1796.444458,662.744141 1792.655273,659.951355 1785.287842,659.993347 
	C1725.007935,660.337280 1664.724976,660.113892 1604.442871,660.095947 
	C1601.203247,660.094971 1597.963745,660.391602 1595.089600,660.531799 
	C1593.651733,668.033447 1592.374512,674.696594 1590.860229,682.596985 
	C1591.295044,683.452393 1593.152222,685.667297 1593.550049,688.119080 
	C1596.427002,705.849304 1598.135986,723.624207 1591.160034,740.879761 
	C1589.638550,744.643188 1589.697632,747.560059 1591.942871,751.043945 
	C1598.822266,761.718811 1596.858887,772.813965 1592.804810,784.757446 
	C1636.593262,807.006592 1680.756470,829.446167 1726.264038,852.519104 
z"/>
<path fill="#3B3B3D" opacity="1.000000" stroke="none" 
	d="
M1686.482910,903.693787 
	C1780.428833,951.316711 1873.696777,998.626831 1966.965576,1045.935303 
	C1984.492432,1054.825317 2002.030518,1063.693115 2019.540771,1072.615601 
	C2021.577271,1073.653442 2023.468384,1074.976562 2025.490845,1076.206299 
	C2025.490845,1196.096680 2025.490845,1315.696777 2025.490845,1436.539062 
	C2022.228027,1435.206055 2019.511475,1434.312500 2016.989502,1433.034912 
	C1894.874512,1371.171387 1772.774780,1309.277710 1650.676880,1247.380493 
	C1566.902954,1204.911377 1483.152222,1162.396240 1399.356323,1119.970581 
	C1350.481934,1095.225708 1317.551270,1056.917358 1300.978760,1004.679993 
	C1295.294800,986.764160 1292.817505,968.294312 1292.797607,949.533630 
	C1292.727905,884.203796 1292.747925,818.873779 1292.788452,753.543884 
	C1292.796875,739.882812 1293.013672,726.221558 1293.198730,712.561279 
	C1293.228882,710.341003 1293.595459,708.125305 1293.925293,704.661133 
	C1425.172241,771.215515 1555.488770,837.298035 1686.482910,903.693787 
z"/>
<path fill="#3B3B3D" opacity="1.000000" stroke="none" 
	d="
M1628.857178,1704.962646 
	C1549.778076,1664.858887 1470.739868,1626.267822 1393.107300,1585.030518 
	C1327.910889,1550.399292 1294.605713,1493.770630 1293.062866,1420.142334 
	C1291.673584,1353.843628 1292.768311,1287.492798 1292.767456,1221.165039 
	C1292.767334,1205.905396 1292.767456,1190.645752 1292.767456,1173.118896 
	C1538.140259,1297.547852 1781.501587,1420.956909 2025.222168,1544.548218 
	C2025.222168,1664.252319 2025.222168,1783.798584 2025.222168,1903.617432 
	C2021.302246,1905.492310 2018.380493,1902.453125 2015.377075,1900.942993 
	C1981.756592,1884.037354 1948.214966,1866.974854 1914.653076,1849.952759 
	C1819.604248,1801.745117 1724.555664,1753.536865 1628.857178,1704.962646 
z"/>
<path fill="#F7941F" opacity="1.000000" stroke="none" 
	d="
M810.466919,1282.290771 
	C708.589539,1333.907104 607.380005,1385.193970 505.036224,1437.055542 
	C504.672028,1433.225220 504.283142,1431.041016 504.282593,1428.856812 
	C504.253510,1314.210815 504.333740,1199.564575 504.077911,1084.919067 
	C504.061615,1077.614868 506.981476,1074.393555 512.977173,1071.369751 
	C595.369690,1029.816162 677.653320,988.046814 759.969055,946.341064 
	C891.923645,879.485535 1023.888245,812.649658 1155.833740,745.776306 
	C1179.604858,733.728516 1203.298950,721.528442 1227.046387,709.433777 
	C1229.624268,708.120850 1232.321655,707.042664 1235.717041,705.517151 
	C1236.116089,708.321655 1236.605347,710.174561 1236.611328,712.029053 
	C1236.869019,792.337708 1238.717773,872.684814 1236.830688,952.944092 
	C1235.052612,1028.562500 1198.590576,1084.888794 1131.078125,1119.538940 
	C1031.489868,1170.651855 931.444092,1220.873535 831.596558,1271.481445 
	C824.761292,1274.945923 817.954651,1278.466675 810.466919,1282.290771 
z"/>
<path fill="#F7941F" opacity="1.000000" stroke="none" 
	d="
M1237.320801,1270.000000 
	C1237.320435,1319.991821 1237.462280,1368.984009 1237.274170,1417.975220 
	C1237.132690,1454.821777 1227.411621,1488.994507 1207.741577,1520.287720 
	C1189.713501,1548.968994 1165.166382,1570.569580 1135.254761,1585.882568 
	C1068.837402,1619.884277 1002.172119,1653.401855 935.620605,1687.141846 
	C827.774719,1741.816895 719.935974,1796.506104 612.101257,1851.203125 
	C580.608521,1867.177124 549.145081,1883.208984 517.652588,1899.183838 
	C513.883118,1901.095947 510.015350,1902.814209 505.113647,1905.132935 
	C504.742432,1901.380249 504.282288,1898.895020 504.281586,1896.409668 
	C504.249603,1782.095459 504.353455,1667.781128 504.045837,1553.467773 
	C504.025330,1545.846313 507.585052,1543.018921 513.276733,1540.145752 
	C568.592957,1512.223022 623.844727,1484.172729 679.110779,1456.150513 
	C817.287476,1386.088867 955.463928,1316.026489 1093.636230,1245.956177 
	C1138.204834,1223.354492 1182.755859,1200.718384 1227.333008,1178.133667 
	C1229.914551,1176.825928 1232.660156,1175.842407 1236.499268,1174.210815 
	C1236.779785,1206.558716 1237.050415,1237.779297 1237.320801,1270.000000 
z"/>
<path fill="#F79520" opacity="1.000000" stroke="none" 
	d="
M1725.591919,852.202393 
	C1680.756470,829.446167 1636.593262,807.006592 1592.804810,784.757446 
	C1596.858887,772.813965 1598.822266,761.718811 1591.942871,751.043945 
	C1589.697632,747.560059 1589.638550,744.643188 1591.160034,740.879761 
	C1598.135986,723.624207 1596.427002,705.849304 1593.550049,688.119080 
	C1593.152222,685.667297 1591.295044,683.452393 1590.860229,682.596985 
	C1592.374512,674.696594 1593.651733,668.033447 1595.089600,660.531799 
	C1597.963745,660.391602 1601.203247,660.094971 1604.442871,660.095947 
	C1664.724976,660.113892 1725.007935,660.337280 1785.287842,659.993347 
	C1792.655273,659.951355 1796.444458,662.744141 1799.035645,668.718567 
	C1803.410156,678.804688 1805.458008,689.495972 1806.036255,700.360168 
	C1806.566528,710.323608 1807.213135,720.472046 1805.959595,730.303223 
	C1802.323975,758.814392 1806.350708,787.535339 1803.542847,815.863525 
	C1801.139038,840.116089 1803.178223,864.295288 1801.215454,889.777283 
	C1792.164307,886.558655 1784.334717,881.752014 1776.166138,877.782837 
	C1767.782837,873.709229 1759.514404,869.398987 1751.200317,865.183594 
	C1742.885254,860.967773 1734.575928,856.741089 1725.591919,852.202393 
z"/>
</svg>